<svg width="24" height="24" viewBox="0 0 24 24" fill="none" xmlns="http://www.w3.org/2000/svg">
<g clip-path="url(#clip0_2446_5135)">
<path d="M21.6738 0H2.32617C1.04353 0 0 1.04353 0 2.32617V21.6738C0 22.9565 1.04353 24 2.32617 24H21.6738C22.9565 24 24 22.9565 24 21.6738V2.32617C24 1.04353 22.9565 0 21.6738 0ZM1.40625 21.6738V2.32617C1.40625 1.81894 1.81894 1.40625 2.32617 1.40625H13.2012C13.7084 1.40625 14.1211 1.81894 14.1211 2.32617V21.6738C14.1211 22.1811 13.7084 22.5938 13.2012 22.5938H2.32617C1.81894 22.5938 1.40625 22.1811 1.40625 21.6738ZM15.3373 22.5938C15.4594 22.3114 15.5273 22.0005 15.5273 21.6738V2.32617C15.5273 1.99955 15.4594 1.68858 15.3373 1.40625H16.0254C16.5326 1.40625 16.9453 1.81894 16.9453 2.32617V21.6738C16.9453 22.1811 16.5326 22.5938 16.0254 22.5938H15.3373ZM18.1615 22.5938C18.2836 22.3114 18.3516 22.0005 18.3516 21.6738V2.32617C18.3516 1.99955 18.2836 1.68858 18.1615 1.40625H18.8496C19.3568 1.40625 19.7695 1.81894 19.7695 2.32617V21.6738C19.7695 22.1811 19.3568 22.5938 18.8496 22.5938H18.1615ZM22.5938 21.6738C22.5938 22.1811 22.1811 22.5938 21.6738 22.5938H20.9858C21.1078 22.3114 21.1758 22.0005 21.1758 21.6738V2.32617C21.1758 1.99955 21.1078 1.68858 20.9858 1.40625H21.6738C22.1811 1.40625 22.5938 1.81894 22.5938 2.32617V21.6738Z" fill="white"/>
<path d="M7.09662 7.5413L5.68451 11.7776C5.63641 11.922 5.63641 12.078 5.68451 12.2223L7.09662 16.4587C7.19234 16.7458 7.46102 16.9394 7.76365 16.9394C8.06627 16.9394 8.33496 16.7458 8.43068 16.4587L9.84279 12.2223C9.89088 12.078 9.89088 11.922 9.84279 11.7776L8.43068 7.5413C8.33496 7.25419 8.06627 7.06055 7.76365 7.06055C7.46102 7.06055 7.19234 7.25419 7.09662 7.5413ZM8.43457 12L7.76365 14.0129L7.09273 12L7.76365 9.98714L8.43457 12Z" fill="white"/>
<path d="M12 5.71355C12.3883 5.71355 12.7031 5.39873 12.7031 5.01042V3.52734C12.7031 3.13903 12.3883 2.82422 12 2.82422C11.6117 2.82422 11.2969 3.13903 11.2969 3.52734V5.01042C11.2969 5.39873 11.6117 5.71355 12 5.71355Z" fill="white"/>
<path d="M3.52734 21.1758C3.91566 21.1758 4.23047 20.861 4.23047 20.4726V18.9896C4.23047 18.6013 3.91566 18.2864 3.52734 18.2864C3.13903 18.2864 2.82422 18.6013 2.82422 18.9896V20.4726C2.82422 20.861 3.13903 21.1758 3.52734 21.1758Z" fill="white"/>
</g>
<defs>
<clipPath id="clip0_2446_5135">
<rect width="24" height="24" fill="white"/>
</clipPath>
</defs>
</svg>
