<svg width="40" height="40" viewBox="0 0 40 40" fill="none" xmlns="http://www.w3.org/2000/svg">
<g clip-path="url(#clip0_2446_5576)">
<path d="M36.2334 21.3335C36.5618 20.7337 36.8691 20.1286 37.1538 19.5184C38.5175 16.5961 39.3821 13.5559 39.7237 10.4821C40.3093 5.21178 39.1562 1.67166 39.1069 1.52354C38.9902 1.17362 38.7156 0.899011 38.3657 0.782372C38.2176 0.732997 34.6771 -0.420195 29.4071 0.165503C26.3333 0.507062 23.2931 1.37166 20.3709 2.7354C16.7388 4.43038 13.2827 6.90419 10.0989 10.0881C6.91514 13.2719 4.44126 16.7279 2.74635 20.36C1.38254 23.2822 0.517858 26.3224 0.176299 29.3962C-0.409242 34.6666 0.743872 38.2067 0.793168 38.3548C0.909808 38.7047 1.18441 38.9793 1.53433 39.0959C1.65261 39.1354 3.93259 39.8782 7.52951 39.8782C8.43778 39.8782 9.43043 39.8308 10.4929 39.7128C13.5667 39.3712 16.6069 38.5066 19.5292 37.1429C20.1301 36.8624 20.7261 36.5602 21.317 36.2374C23.2603 38.5369 26.1639 40 29.4033 40C35.2403 40 39.9891 35.2512 39.9891 29.4141C39.9893 26.178 38.529 23.2768 36.2334 21.3335ZM37.0418 2.8504C37.2733 3.8182 37.6604 5.93099 37.512 8.77643L31.1133 2.37775C33.9446 2.23236 36.0693 2.62009 37.0418 2.8504ZM2.8583 37.0281C2.62682 36.0605 2.23964 33.9477 2.388 31.102L8.78668 37.5007C5.95437 37.6462 3.82915 37.258 2.8583 37.0281ZM20.0001 34.2723C16.9457 35.9086 14.1162 36.7516 11.7645 37.164L2.72518 28.1247C3.49291 23.7475 5.74062 17.7608 11.7561 11.7452C17.7829 5.7185 23.7791 3.47828 28.1356 2.71446L37.1748 11.7537C36.7598 14.1204 35.9117 16.9575 34.2697 20.0153C32.8119 19.2574 31.1569 18.8284 29.4034 18.8284C26.9117 18.8284 24.6187 19.6943 22.8084 21.1402L21.6073 19.9391L24.4614 17.0851L25.8884 18.5121C26.1172 18.7409 26.4171 18.8554 26.717 18.8554C27.0168 18.8554 27.3168 18.7409 27.5456 18.5121C28.0032 18.0545 28.0032 17.3125 27.5456 16.8549L26.1185 15.4279L27.5456 14.0008C28.0032 13.5432 28.0032 12.8012 27.5456 12.3436C27.088 11.8859 26.346 11.8859 25.8883 12.3436L24.4613 13.7706L23.0343 12.3437C22.5768 11.8861 21.8348 11.886 21.377 12.3437C20.9194 12.8012 20.9194 13.5433 21.377 14.0009L22.804 15.4279L19.95 18.282L18.523 16.8549C18.0654 16.3973 17.3234 16.3973 16.8657 16.8549C16.4081 17.3126 16.4081 18.0545 16.8657 18.5122L18.2928 19.9392L15.4387 22.7933L14.0117 21.3662C13.5541 20.9086 12.8121 20.9086 12.3545 21.3662C11.8968 21.8239 11.8968 22.5658 12.3545 23.0235L13.7815 24.4505L12.3545 25.8775C11.8968 26.3352 11.8968 27.0771 12.3545 27.5348C12.5833 27.7636 12.8832 27.878 13.183 27.878C13.4829 27.878 13.7829 27.7636 14.0116 27.5348L15.4386 26.1078L16.8657 27.5348C17.0945 27.7636 17.3944 27.878 17.6943 27.878C17.9941 27.878 18.2941 27.7637 18.5228 27.5348C18.9805 27.0771 18.9805 26.3352 18.5228 25.8775L17.0958 24.4505L19.9499 21.5965L21.1486 22.7952C19.691 24.6092 18.8174 26.9115 18.8174 29.4143C18.8176 31.1644 19.2449 32.8165 20.0001 34.2723ZM29.4034 37.6563C24.8587 37.6563 21.1613 33.9589 21.1613 29.4142C21.1613 24.8696 24.8587 21.1721 29.4034 21.1721C33.9482 21.1721 37.6455 24.8695 37.6455 29.4142C37.6455 33.9589 33.9482 37.6563 29.4034 37.6563Z" fill="#BACED0"/>
<path d="M29.385 27.3174H31.0377C31.6849 27.3174 32.2096 26.7928 32.2096 26.1456C32.2096 25.4984 31.6849 24.9737 31.0377 24.9737H30.5569V24.5112C30.5569 23.864 30.0322 23.3394 29.385 23.3394C28.7378 23.3394 28.2132 23.864 28.2132 24.5112V25.2329C27.26 25.6764 26.5972 26.6428 26.5972 27.7616V27.835C26.5972 29.3723 27.8478 30.6229 29.385 30.6229H29.4218C29.6667 30.6229 29.866 30.8221 29.866 31.067C29.866 31.3119 29.6667 31.5112 29.4218 31.5112H27.7691C27.1219 31.5112 26.5972 32.0358 26.5972 32.683C26.5972 33.3302 27.1219 33.8549 27.7691 33.8549H28.25V34.3174C28.25 34.9646 28.7746 35.4892 29.4218 35.4892C30.069 35.4892 30.5937 34.9646 30.5937 34.3174V33.5957C31.5469 33.1522 32.2097 32.1858 32.2097 31.067C32.2097 29.5298 30.9591 28.2792 29.4218 28.2792H29.385C29.1401 28.2792 28.9409 28.0799 28.9409 27.835V27.7616C28.941 27.5167 29.1402 27.3174 29.385 27.3174Z" fill="#BACED0"/>
</g>
<defs>
<clipPath id="clip0_2446_5576">
<rect width="40" height="40" fill="white"/>
</clipPath>
</defs>
</svg>
